Coordinates
version=1
nRows=17
nColumns=40
inDegrees=yes

Units are S.I. units (second, meters, Newtons, ...)
If the header above contains a line with 'inDegrees', this indicates whether rotational values are in degrees (yes) or radians (no).

endheader
time	pelvis_tilt	pelvis_list	pelvis_rotation	pelvis_tx	pelvis_ty	pelvis_tz	hip_flexion_r	hip_adduction_r	hip_rotation_r	knee_angle_r	knee_angle_r_beta	ankle_angle_r	subtalar_angle_r	mtp_angle_r	hip_flexion_l	hip_adduction_l	hip_rotation_l	knee_angle_l	knee_angle_l_beta	ankle_angle_l	subtalar_angle_l	mtp_angle_l	lumbar_extension	lumbar_bending	lumbar_rotation	arm_flex_r	arm_add_r	arm_rot_r	elbow_flex_r	pro_sup_r	wrist_flex_r	wrist_dev_r	arm_flex_l	arm_add_l	arm_rot_l	elbow_flex_l	pro_sup_l	wrist_flex_l	wrist_dev_l
      1.15500000	      1.53949180	     -4.08228049	      2.09996146	      0.16471863	      0.45771989	     -1.22200554	     85.96237165	    -48.64302231	     19.27705337	    120.63450247	      2.10546926	     32.79484543	     16.90062369	      0.00000000	     99.11091209	    -45.44919455	     28.88865083	    122.96684520	      2.14617632	     32.46935361	     23.41218609	      0.00000000	    -40.24637968	      4.61801458	     -6.93342837	     44.99910096	    -15.00000924	     44.99910096	     75.00017590	     45.00000026	      0.00000000	      0.00000000	     44.99910096	    -15.00000924	     44.99910096	     75.00017590	     45.00000026	      0.00000000	      0.00000000
      1.16000000	      1.85989988	     -4.14887953	      2.11190045	      0.16496652	      0.45620265	     -1.22225339	     85.83571107	    -48.70315162	     19.50921136	    120.85226590	      2.10926995	     32.89943356	     17.15904870	      0.00000000	     99.14992622	    -45.42983241	     29.32586106	    123.24939882	      2.15110781	     32.62636651	     23.55675229	      0.00000000	    -40.61303091	      4.70813058	     -6.93763139	     44.99918273	    -15.00000792	     44.99918273	     75.00017589	     45.00000026	      0.00000000	      0.00000000	     44.99918273	    -15.00000792	     44.99918273	     75.00017589	     45.00000026	      0.00000000	      0.00000000
      1.16500000	      2.21665815	     -3.61060944	      1.92449726	      0.16520189	      0.45473944	     -1.22150851	     86.60012097	    -48.61114653	     20.88953085	    121.15698648	      2.11458833	     32.88559703	     17.60851220	      0.00000000	     98.37767036	    -45.76915468	     28.80361228	    123.47715446	      2.15508290	     32.81379769	     23.74555512	      0.00000000	    -40.99687700	      4.27979336	     -6.45652301	     44.99925201	    -15.00000687	     44.99925201	     75.00017588	     45.00000026	      0.00000000	      0.00000000	     44.99925201	    -15.00000687	     44.99925201	     75.00017588	     45.00000026	      0.00000000	      0.00000000
      1.17000000	      2.44776713	     -4.20543170	      2.07019807	      0.16542536	      0.45313121	     -1.22251661	     85.78090877	    -48.75090142	     20.12241843	    121.30360866	      2.11714737	     33.05767336	     17.61326203	      0.00000000	     99.19186413	    -45.46307136	     30.08451484	    123.79271604	      2.16059048	     32.93182706	     23.83112436	      0.00000000	    -41.29377321	      4.66361078	     -6.96312922	     44.99931377	    -15.00000597	     44.99931377	     75.00017587	     45.00000026	      0.00000000	      0.00000000	     44.99931377	    -15.00000597	     44.99931377	     75.00017587	     45.00000026	      0.00000000	      0.00000000
      1.17500000	      2.66660900	     -4.20171762	      2.05300980	      0.16565139	      0.45140691	     -1.22264415	     85.91615667	    -48.77651873	     20.52320384	    121.53927804	      2.12126057	     33.12286473	     17.84147179	      0.00000000	     99.26362203	    -45.44875442	     30.41737794	    124.07279000	      2.16547870	     33.04696040	     23.95527657	      0.00000000	    -41.53681732	      4.65933576	     -6.95532284	     44.99937354	    -15.00000513	     44.99937354	     75.00017587	     45.00000026	      0.00000000	      0.00000000	     44.99937354	    -15.00000513	     44.99937354	     75.00017587	     45.00000026	      0.00000000	      0.00000000
      1.18000000	      3.04594994	     -4.29741388	      2.05735106	      0.16583319	      0.45025796	     -1.22287764	     85.62514776	    -48.82767515	     20.63797480	    121.71571825	      2.12434003	     33.24585717	     18.10243537	      0.00000000	     99.23176051	    -45.46021739	     30.86163982	    124.31392637	      2.16968732	     33.20524755	     24.08800226	      0.00000000	    -41.98140218	      4.72972466	     -6.93913318	     44.99942897	    -15.00000439	     44.99942897	     75.00017586	     45.00000026	      0.00000000	      0.00000000	     44.99942897	    -15.00000439	     44.99942897	     75.00017586	     45.00000026	      0.00000000	      0.00000000
      1.18500000	      3.32891808	     -4.33388210	      2.04298738	      0.16605100	      0.44881873	     -1.22301453	     85.57855459	    -48.85928216	     20.90759852	    121.92068386	      2.12791736	     33.31577953	     18.33765350	      0.00000000	     99.25374662	    -45.46720900	     31.23849295	    124.56930096	      2.17414445	     33.34695103	     24.21192673	      0.00000000	    -42.31145626	      4.73383131	     -6.93668685	     44.99948202	    -15.00000372	     44.99948202	     75.00017586	     45.00000026	      0.00000000	      0.00000000	     44.99948202	    -15.00000372	     44.99948202	     75.00017586	     45.00000026	      0.00000000	      0.00000000
      1.19000000	      3.60391765	     -4.36202224	      2.02409703	      0.16622145	      0.44742178	     -1.22314513	     85.54478658	    -48.88779157	     21.18106066	    122.11570077	      2.13132105	     33.38806512	     18.57443401	      0.00000000	     99.27559003	    -45.47548956	     31.59760029	    124.81482902	      2.17842972	     33.46832618	     24.34632466	      0.00000000	    -42.62816508	      4.74828342	     -6.90225428	     44.99952858	    -15.00000315	     44.99952858	     75.00017586	     45.00000026	      0.00000000	      0.00000000	     44.99952858	    -15.00000315	     44.99952858	     75.00017586	     45.00000026	      0.00000000	      0.00000000
      1.19500000	      3.77612113	     -4.17360055	      1.94401195	      0.16643301	      0.44567196	     -1.22297114	     86.04237898	    -48.86932790	     21.95081380	    122.37036211	      2.13576573	     33.38415581	     18.90285178	      0.00000000	     99.15327188	    -45.55424117	     31.63321021	    125.07331509	      2.18294115	     33.62711251	     24.40085607	      0.00000000	    -42.76846528	      4.62012008	     -6.68376277	     44.99956901	    -15.00000269	     44.99956901	     75.00017585	     45.00000026	      0.00000000	      0.00000000	     44.99956901	    -15.00000269	     44.99956901	     75.00017585	     45.00000026	      0.00000000	      0.00000000
      1.20000000	      4.15557387	     -4.41408968	      1.97766720	      0.16656327	      0.44470371	     -1.22339882	     85.49505264	    -48.93195446	     21.74998999	    122.50500498	      2.13811569	     33.50962200	     19.04137805	      0.00000000	     99.27546967	    -45.50767294	     32.28200853	    125.29673989	      2.18684065	     33.74457013	     24.59258784	      0.00000000	    -43.25670950	      4.69225919	     -6.96451307	     44.99960802	    -15.00000226	     44.99960802	     75.00017585	     45.00000026	      0.00000000	      0.00000000	     44.99960802	    -15.00000226	     44.99960802	     75.00017585	     45.00000026	      0.00000000	      0.00000000
      1.20500000	      4.27743736	     -4.16328741	      1.88342777	      0.16677377	      0.44291020	     -1.22314525	     86.13665533	    -48.90490509	     22.62946904	    122.75359276	      2.14245436	     33.48573239	     19.34282352	      0.00000000	     99.13530619	    -45.60298075	     32.21794825	    125.55005844	      2.19126190	     33.87445075	     24.63391063	      0.00000000	    -43.35198802	      4.52926850	     -6.72767638	     44.99964072	    -15.00000193	     44.99964072	     75.00017585	     45.00000026	      0.00000000	      0.00000000	     44.99964072	    -15.00000193	     44.99964072	     75.00017585	     45.00000026	      0.00000000	      0.00000000
      1.21000000	      4.52501213	     -4.22265524	      1.84783594	      0.16690133	      0.44159268	     -1.22323501	     86.10571193	    -48.91695893	     22.82823627	    122.94627796	      2.14581735	     33.55080423	     19.55759676	      0.00000000	     99.19937354	    -45.61825866	     32.61343833	    125.75862404	      2.19490205	     34.00183521	     24.74448505	      0.00000000	    -43.62816052	      4.53010687	     -6.72929563	     44.99966967	    -15.00000164	     44.99966967	     75.00017585	     45.00000026	      0.00000000	      0.00000000	     44.99966967	    -15.00000164	     44.99966967	     75.00017585	     45.00000026	      0.00000000	      0.00000000
      1.21500000	      4.94303228	     -4.49093472	      1.89723813	      0.16699290	      0.44088744	     -1.22372686	     85.41936309	    -48.99526903	     22.54038059	    123.04267782	      2.14749985	     33.66992654	     19.74239155	      0.00000000	     99.28274631	    -45.56629874	     33.27217236	    125.96857409	      2.19856637	     34.11324028	     24.95731902	      0.00000000	    -44.15870336	      4.67858877	     -6.88666041	     44.99969753	    -15.00000138	     44.99969753	     75.00017585	     45.00000026	      0.00000000	      0.00000000	     44.99969753	    -15.00000138	     44.99969753	     75.00017585	     45.00000026	      0.00000000	      0.00000000
      1.22000000	      5.16196440	     -4.32687903	      1.81540809	      0.16711778	      0.43958470	     -1.22356639	     85.74956889	    -48.98707742	     23.17249027	    123.23335690	      2.15082783	     33.64945668	     20.09916351	      0.00000000	     99.08253606	    -45.67299131	     33.29041308	    126.17610018	      2.20218839	     34.26343289	     25.02531188	      0.00000000	    -44.38212208	      4.60366071	     -6.61328090	     44.99972021	    -15.00000118	     44.99972021	     75.00017585	     45.00000026	      0.00000000	      0.00000000	     44.99972021	    -15.00000118	     44.99972021	     75.00017585	     45.00000026	      0.00000000	      0.00000000
      1.22500000	      5.39113978	     -4.30584382	      1.77947348	      0.16722601	      0.43837583	     -1.22360128	     85.82449877	    -49.00448345	     23.51037307	    123.40521131	      2.15382725	     33.67855950	     20.32994317	      0.00000000	     99.04276412	    -45.70158327	     33.52936682	    126.37710038	      2.20569650	     34.36477557	     25.14859948	      0.00000000	    -44.63686403	      4.57563374	     -6.54886159	     44.99974080	    -15.00000101	     44.99974080	     75.00017585	     45.00000026	      0.00000000	      0.00000000	     44.99974080	    -15.00000101	     44.99974080	     75.00017585	     45.00000026	      0.00000000	      0.00000000
      1.23000000	      5.62713919	     -4.42021852	      1.78367677	      0.16732768	      0.43728253	     -1.22387869	     85.65624862	    -49.04387777	     23.57131732	    123.54426778	      2.15625424	     33.76588975	     20.44696102	      0.00000000	     99.14391465	    -45.66651984	     33.95537261	    126.57909179	      2.20922192	     34.46452582	     25.26679717	      0.00000000	    -44.91229117	      4.64387357	     -6.58849251	     44.99975948	    -15.00000086	     44.99975948	     75.00017585	     45.00000026	      0.00000000	      0.00000000	     44.99975948	    -15.00000086	     44.99975948	     75.00017585	     45.00000026	      0.00000000	      0.00000000
      1.23500000	      5.92149818	     -4.47609414	      1.74129876	      0.16739412	      0.43642831	     -1.22399185	     85.48422873	    -49.05400056	     23.70525551	    123.66011528	      2.15827617	     33.77537073	     20.75716743	      0.00000000	     99.09549916	    -45.72539516	     34.27830737	    126.75468816	      2.21228665	     34.60722374	     25.35839789	      0.00000000	    -45.26691011	      4.67375977	     -6.51545623	     44.99977598	    -15.00000073	     44.99977598	     75.00017585	     45.00000026	      0.00000000	      0.00000000	     44.99977598	    -15.00000073	     44.99977598	     75.00017585	     45.00000026	      0.00000000	      0.00000000
